<svg version="1.0" xmlns="http://www.w3.org/2000/svg" width="300" height="300" viewBox="0 0 300.000000 300.000000" preserveAspectRatio="xMidYMid " class="svg" style="width: 256px; height: 256px;">
<g transform="translate(0.000000,300.000000) scale(0.100000,-0.100000)" fill="#292728" stroke="none">

<path class="node" id="node2" d="M983 2104 c-6 -16 -14 -37 -17 -47 -3 -11 3 -39 14 -64 11 -25 20
-57 20 -72 0 -14 10 -80 21 -146 23 -130 35 -271 25 -309 -17 -69 -237 -115
-348 -73 -60 23 -78 51 -78 124 0 45 7 73 30 118 46 94 36 118 -13 30 -56 -99
-77 -249 -44 -311 9 -18 33 -42 54 -55 35 -22 49 -24 164 -24 114 0 130 2 173
24 96 50 122 110 112 261 -5 81 -21 217 -42 363 -5 28 -3 37 9 37 8 0 17 13
21 31 11 56 7 68 -26 85 -18 9 -40 25 -49 36 -15 20 -16 20 -26 -8z"></path>
<path class="node" id="node3" d="M1616 2055 c-16 -33 -16 -41 -1 -123 26 -136 24 -198 -10 -260 -47
-86 -160 -163 -320 -217 -44 -15 -87 -34 -95 -42 -13 -14 -3 -15 101 -9 202
12 264 51 325 200 15 36 31 66 35 66 4 0 10 -33 14 -72 4 -40 14 -88 22 -106
30 -63 24 -62 394 -62 186 0 344 3 353 6 11 4 16 19 16 43 0 35 -3 39 -38 49
-20 6 -53 26 -73 44 -164 150 -228 187 -305 172 -37 -7 -94 -53 -94 -76 0 -9
12 -12 43 -10 39 3 82 -11 153 -52 41 -23 104 -69 104 -76 0 -3 -24 -6 -52 -5
-29 1 -135 3 -234 3 -159 2 -185 4 -204 20 -29 23 -40 82 -69 342 -12 113 -30
200 -42 200 -4 0 -14 -16 -23 -35z"></path>
<path class="node" id="node4" d="M1232 2007 c7 -56 31 -92 83 -122 36 -22 45 -23 73 -13 31 12 34 11
83 -37 27 -28 62 -71 76 -97 30 -55 43 -61 43 -19 0 49 -46 121 -127 197 -62
58 -183 134 -214 134 -19 0 -21 -4 -17 -43z"></path>
<path class="node" id="node5" d="M838 1043 c-2 -15 -1 -89 2 -163 l5 -135 25 0 c24 0 25 4 30 65 l5
65 63 3 62 3 0 -66 c0 -70 14 -90 49 -68 14 9 16 33 16 164 l0 154 -30 0 c-30
0 -30 0 -33 -63 l-3 -63 -62 3 -62 3 0 60 0 60 -32 3 c-28 3 -32 0 -35 -25z"></path>
<path class="node" id="node6" d="M1182 915 c-29 -85 -52 -159 -52 -164 0 -4 15 -8 34 -9 32 -1 34 1
46 43 l13 45 46 0 c46 0 47 -1 61 -42 15 -44 40 -58 69 -39 13 8 10 25 -18
113 -66 208 -63 203 -108 206 l-40 3 -51 -156z m113 -22 c-2 -7 -16 -13 -30
-13 -23 0 -25 3 -19 28 4 15 11 38 16 52 9 25 10 24 24 -15 7 -22 12 -46 9
-52z"></path>
<path class="node" id="node7" d="M1452 908 l3 -163 95 0 95 0 3 28 3 27 -65 0 -66 0 0 135 0 135 -35
0 -35 0 2 -162z"></path>
<path class="node" id="node8" d="M1756 1058 c-2 -7 -22 -71 -45 -143 -51 -159 -52 -175 -12 -172 26 2
31 8 42 45 12 42 12 42 60 42 48 0 48 0 59 -40 8 -29 17 -41 35 -46 29 -7 45
1 45 23 0 19 -36 129 -50 155 -5 9 -13 35 -16 58 -4 22 -11 43 -15 46 -5 3 -9
14 -9 25 0 16 -7 19 -45 19 -28 0 -47 -5 -49 -12z m62 -121 c18 -49 15 -57
-19 -57 -28 0 -31 2 -24 23 3 12 9 32 12 45 7 31 17 28 31 -11z"></path>
<path class="node" id="node9" d="M1980 918 c0 -84 4 -159 8 -166 6 -9 33 -12 98 -10 89 3 89 3 92 31
l3 27 -65 0 -66 0 0 135 0 135 -35 0 -35 0 0 -152z"></path>
</g>
<g transform="translate(0.000000,300.000000) scale(0.100000,-0.100000)" fill="#FFFFFF" stroke="none">



<path class="node" id="node13" d="M1262 960 c-5 -14 -12 -37 -16 -52 -6 -25 -4 -28 19 -28 33 0 38 16
21 65 -14 39 -15 40 -24 15z"></path>
<path class="node" id="node14" d="M1787 948 c-3 -13 -9 -33 -12 -45 -7 -21 -4 -23 24 -23 34 0 37 8 19
57 -14 39 -24 42 -31 11z"></path>


</g>
</svg>